<svg width="24" height="24" viewBox="0 0 24 24" fill="none" xmlns="http://www.w3.org/2000/svg">
<path d="M19.5648 4.74256H14.594V3.8653C14.594 3.38817 14.2064 3 13.73 3H10.27C9.7936 3 9.40601 3.38817 9.40601 3.8653V4.74252H4.43523C4.19484 4.74252 4 4.93736 4 5.17776C4 5.41815 4.19484 5.61299 4.43523 5.61299H5.24191L5.79197 19.9316C5.82564 20.8079 6.53901 21.4944 7.41609 21.4944H16.584C17.4611 21.4944 18.1744 20.8079 18.208 19.9315L18.7581 5.61295H19.5648C19.8051 5.61295 20 5.41811 20 5.17772C20 4.9374 19.8052 4.74256 19.5648 4.74256ZM10.2764 3.87043H13.7236V4.74252H10.2764V3.87043ZM17.3382 19.8982C17.3226 20.3052 16.9913 20.624 16.5839 20.624H7.41609C7.00878 20.624 6.67747 20.3052 6.66179 19.8981L6.11303 5.61299H17.887L17.3382 19.8982Z" fill="#828282" stroke="#828282" stroke-width="0.3"/>
<path d="M9.45009 9.55676L9.45009 9.55677L9.58666 16.6596C9.59235 16.9552 9.35735 17.1993 9.06182 17.205M9.45009 9.55676L9.0599 17.105M9.45009 9.55676C9.44444 9.2647 9.20603 9.03184 8.91512 9.03184M9.45009 9.55676L8.91512 9.03184M9.06182 17.205L9.0599 17.105M9.06182 17.205L9.06247 17.205L9.0599 17.105M9.06182 17.205L9.05138 17.2051C8.76052 17.2051 8.52201 16.9722 8.51641 16.6801M9.0599 17.105L9.05138 17.1051C8.81489 17.1051 8.62095 16.9157 8.6164 16.6782L8.51641 16.6801M8.51641 16.6801L8.51641 16.6801M8.51641 16.6801L8.51641 16.6801M8.51641 16.6801L8.37984 9.57734L8.47981 9.57541L8.51641 16.6801ZM8.91512 9.03184L8.90468 9.03193L8.91512 9.03184Z" fill="#828282" stroke="#828282" stroke-width="0.2"/>
<path d="M12.0002 9.03184C11.7046 9.03184 11.4649 9.27144 11.4649 9.56707V16.6699C11.4649 16.9655 11.7045 17.2051 12.0002 17.2051C12.2958 17.2051 12.5354 16.9655 12.5354 16.6699V9.56707C12.5354 9.27149 12.2958 9.03184 12.0002 9.03184Z" fill="#828282" stroke="#828282" stroke-width="0.2"/>
<path d="M14.9388 17.205L14.9381 17.205C14.6426 17.1993 14.4076 16.9552 14.4133 16.6596L14.9388 17.205ZM14.9388 17.205L14.9486 17.2051C15.2394 17.2051 15.4779 16.9722 15.4835 16.6802L15.6201 9.57737C15.6258 9.28186 15.3909 9.03769 15.0954 9.03196M14.9388 17.205L14.4133 16.6596L14.5499 9.55682C14.5499 9.55681 14.5499 9.55681 14.5499 9.5568C14.5555 9.26144 14.8005 9.02551 15.0954 9.03196M15.0954 9.03196C15.0954 9.03196 15.0953 9.03196 15.0953 9.03196L15.0933 9.13194L15.0956 9.03197C15.0955 9.03197 15.0955 9.03197 15.0954 9.03196Z" fill="#828282" stroke="#828282" stroke-width="0.2"/>
</svg>
