<svg width="21" height="41" viewBox="0 0 21 41" fill="none" xmlns="http://www.w3.org/2000/svg">
<path d="M2.48889 3.17029L2.48889 7.21473L2.33333 7.21473C1.04673 7.21473 4.00247e-07 8.26147 3.84352e-07 9.54807L2.88264e-08 38.3258C1.29315e-08 39.6124 1.04673 40.6592 2.33333 40.6592L18.6667 40.6592C19.9533 40.6592 21 39.6124 21 38.3258L21 9.54807C21 8.26147 19.9533 7.21473 18.6667 7.21473L18.5111 7.21473L18.5111 3.17029C18.5111 1.88369 17.4644 0.836956 16.1778 0.836956L4.82222 0.836956C3.53562 0.836956 2.48889 1.88369 2.48889 3.17029ZM18.6667 9.54807L18.6667 38.3258L2.33333 38.3258L2.33333 9.54807C19.0247 9.54659 18.6667 9.54029 18.6667 9.54807ZM16.1778 3.17029L16.1778 7.13696L4.82222 7.13696L4.82222 3.17029C16.4236 3.16881 16.1778 3.16251 16.1778 3.17029Z" fill="#2F80ED"/>
<path d="M11.8223 17.6371L11.8223 24.1538L8.83606 21.1676C8.10363 20.4352 6.84448 20.9541 6.84448 21.9926L6.84448 30.0815C6.84448 30.7258 7.36684 31.2482 8.01115 31.2482C8.65546 31.2482 9.17782 30.7258 9.17782 30.0815L9.17782 24.8092L12.164 27.7954C12.8965 28.5278 14.1556 28.0089 14.1556 26.9704L14.1556 17.6371C14.1556 16.9927 13.6332 16.4704 12.9889 16.4704C12.3446 16.4704 11.8223 16.9927 11.8223 17.6371Z" fill="#2F80ED"/>
</svg>
