<svg width="148" height="53" viewBox="0 0 148 53" fill="none" xmlns="http://www.w3.org/2000/svg">
<path d="M69.0306 33.1243H60.3751C59.9375 33.1243 59.4512 33.0519 58.9406 32.8828C58.4057 32.7379 57.9438 32.4723 57.4818 32.1341C57.0442 31.7719 56.6552 31.313 56.3634 30.7575C56.0717 30.2021 55.9258 29.5017 55.9258 28.6806V24.4059C55.9258 24.1161 55.9501 23.778 56.023 23.464C56.096 23.1259 56.1932 22.8119 56.3391 22.4738C56.485 22.1357 56.6795 21.8218 56.8983 21.532C57.1414 21.2421 57.4089 20.9765 57.7493 20.735C58.0897 20.5176 58.4544 20.3244 58.892 20.1795C59.3296 20.0346 59.8159 19.9622 60.3508 19.9622H68.982V23.1259H60.3751C59.9618 23.1259 59.6457 23.2225 59.4269 23.4399C59.2081 23.6572 59.1108 23.9712 59.1108 24.4059V28.6564C59.1108 29.067 59.2324 29.381 59.4512 29.5983C59.67 29.8157 59.9861 29.9364 60.4237 29.9364H69.0306V33.1243Z" fill="black"/>
<path d="M85.9523 28.6806C85.9523 29.2361 85.8794 29.7191 85.7335 30.1538C85.5876 30.5885 85.4174 30.9749 85.1743 31.2889C84.9555 31.627 84.688 31.8926 84.372 32.1341C84.0802 32.3756 83.7641 32.5447 83.4237 32.6896C83.0833 32.8345 82.7673 32.9311 82.4269 33.0036C82.0865 33.076 81.7704 33.1002 81.4544 33.1002H75.7164C75.2788 33.1002 74.7925 33.0277 74.2819 32.8587C73.7471 32.7138 73.2851 32.4481 72.8231 32.11C72.3855 31.7477 71.9965 31.2889 71.7047 30.7334C71.413 30.1779 71.2671 29.4776 71.2671 28.6564V24.3817C71.2671 23.5606 71.413 22.8844 71.7047 22.3289C71.9965 21.7735 72.3855 21.3146 72.8231 20.9523C73.2608 20.5901 73.7471 20.3486 74.2819 20.2037C74.8168 20.0588 75.2788 19.9622 75.7164 19.9622H81.4544C82.281 19.9622 82.9618 20.1071 83.5453 20.3969C84.1045 20.6867 84.5665 21.0489 84.9312 21.5078C85.2715 21.9425 85.539 22.4255 85.6849 22.9569C85.8551 23.4882 85.928 23.947 85.928 24.4059V28.6806H85.9523ZM82.7673 24.43C82.7673 23.9953 82.6457 23.6572 82.4269 23.464C82.2081 23.2467 81.892 23.1501 81.4787 23.1501H75.765C75.3517 23.1501 75.0113 23.2467 74.7925 23.464C74.5737 23.6814 74.4521 23.9953 74.4521 24.4059V28.6806C74.4521 29.0911 74.5737 29.4051 74.7925 29.6225C75.0113 29.8398 75.3274 29.9606 75.765 29.9606H81.4787C81.9163 29.9606 82.2324 29.8398 82.4512 29.6225C82.67 29.4051 82.7673 29.0911 82.7673 28.6806V24.43Z" fill="black"/>
<path d="M103.263 28.6806C103.263 29.2361 103.19 29.7191 103.045 30.1538C102.899 30.5885 102.728 30.9749 102.485 31.2889C102.266 31.627 101.999 31.8927 101.683 32.1342C101.391 32.3757 101.075 32.5447 100.735 32.6896C100.394 32.8345 100.078 32.9311 99.7379 33.0036C99.3975 33.076 99.0814 33.1002 98.7897 33.1002H93.0518V29.9364H98.7897C99.203 29.9364 99.5434 29.8157 99.7379 29.5983C99.9567 29.381 100.054 29.067 100.054 28.6565V24.4301C100.054 23.9954 99.9567 23.6572 99.7379 23.464C99.5191 23.2467 99.203 23.1501 98.7897 23.1501H93.0761C92.6384 23.1501 92.3224 23.2467 92.1035 23.464C91.8847 23.6814 91.7632 23.9954 91.7632 24.4059V37.23H88.5781V24.3818C88.5781 23.8505 88.6511 23.3433 88.7969 22.9327C88.9428 22.498 89.113 22.1116 89.3562 21.7976C89.5993 21.4595 89.8667 21.1939 90.1585 20.9524C90.4502 20.7109 90.7663 20.5418 91.1067 20.3969C91.4471 20.252 91.7632 20.1312 92.1035 20.0829C92.4439 20.0105 92.76 19.9863 93.0518 19.9863H98.7897C99.3489 19.9863 99.8352 20.0588 100.248 20.2037C100.686 20.3486 101.075 20.5176 101.391 20.7592C101.732 20.9765 101.999 21.2422 102.242 21.5561C102.485 21.8459 102.655 22.1599 102.801 22.498C102.947 22.8361 103.069 23.1501 103.117 23.4882C103.19 23.8263 103.215 24.1403 103.215 24.4301V28.6806H103.263Z" fill="black"/>
<path d="M117.973 23.1259H112.406V33.1243H109.172V23.1259H105.039V19.9622H109.172V15.6875H112.406V19.9863H117.973V23.1259Z" fill="black"/>
<path d="M134.263 24.3334C134.263 24.7682 134.19 25.2512 134.02 25.7583C133.874 26.2655 133.607 26.7244 133.266 27.1591C132.926 27.5938 132.464 27.9561 131.905 28.2459C131.345 28.5357 130.665 28.6806 129.862 28.6806H124.124V25.6859H129.862C130.3 25.6859 130.64 25.5651 130.859 25.2995C131.102 25.0338 131.224 24.7199 131.224 24.3093C131.224 23.8987 131.102 23.5606 130.835 23.3433C130.567 23.1018 130.251 22.981 129.862 22.981H124.124C123.687 22.981 123.346 23.1018 123.128 23.3674C122.884 23.6331 122.763 23.947 122.763 24.3576V28.7772C122.763 29.1877 122.884 29.5259 123.152 29.7674C123.419 30.0089 123.735 30.1296 124.149 30.1296H129.862V33.1243H124.124C123.687 33.1243 123.201 33.0519 122.69 32.8828C122.179 32.7379 121.717 32.4723 121.28 32.1341C120.842 31.796 120.477 31.3372 120.186 30.7817C119.894 30.2262 119.748 29.55 119.748 28.753V24.3093C119.748 23.8746 119.821 23.3916 119.991 22.8844C120.137 22.3772 120.404 21.9184 120.745 21.4837C121.085 21.0489 121.547 20.6867 122.106 20.3969C122.666 20.1071 123.346 19.9622 124.149 19.9622H129.887C130.324 19.9622 130.811 20.0346 131.321 20.2037C131.832 20.3486 132.294 20.6142 132.731 20.9523C133.169 21.2904 133.534 21.7493 133.825 22.3048C134.117 22.8602 134.263 23.5365 134.263 24.3334Z" fill="black"/>
<path d="M148 23.1259H140.828C140.39 23.1259 140.074 23.2226 139.855 23.4399C139.636 23.6573 139.515 23.9712 139.515 24.3818V33.1244H136.33V24.4059C136.33 23.8746 136.403 23.3675 136.548 22.9569C136.694 22.5222 136.864 22.1358 137.108 21.8218C137.351 21.4837 137.618 21.218 137.91 20.9765C138.202 20.735 138.518 20.566 138.858 20.4211C139.199 20.2762 139.515 20.1554 139.855 20.1071C140.195 20.0346 140.511 20.0105 140.803 20.0105H148V23.1259Z" fill="black"/>
<path d="M2.2801 8C2.2801 4.84729 4.83538 2.26601 8 2.26601C11.145 2.26601 13.7199 4.82759 13.7199 8H16C15.9803 3.58621 12.3833 0 7.98034 0C3.5774 0 0 3.58621 0 8C0 12.4138 3.5774 16 7.98034 16V13.734C4.83538 13.734 2.2801 11.1724 2.2801 8Z" fill="url(#paint0_linear)"/>
<path d="M8 50.7199C4.84729 50.7199 2.26601 48.1646 2.26601 45C2.26601 41.855 4.82759 39.2801 8 39.2801V37C3.58621 37.0197 0 40.6167 0 45.0197C0 49.4226 3.58621 53 8 53C12.4138 53 16 49.4226 16 45.0197H13.734C13.734 48.1646 11.1724 50.7199 8 50.7199Z" fill="url(#paint1_linear)"/>
<path d="M50.7537 45C50.7537 48.1527 48.1921 50.734 45.0197 50.734C41.867 50.734 39.2857 48.1724 39.2857 45H37C37 49.4138 40.5862 53 45 53C49.4138 53 53 49.4138 53 45C53 40.5862 49.4138 37 45 37V39.266C48.1724 39.266 50.7537 41.8276 50.7537 45Z" fill="url(#paint2_linear)"/>
<path d="M45 2.2801C48.1527 2.2801 50.734 4.83538 50.734 8C50.734 11.145 48.1724 13.7199 45 13.7199V16C49.4138 16 53 12.4226 53 8.01966C53 3.5774 49.4138 0 45 0C40.5862 0 37 3.5774 37 7.98034H39.2857C39.266 4.83538 41.8473 2.2801 45 2.2801Z" fill="url(#paint3_linear)"/>
<path d="M45.9474 43.4552C45.9274 43.4352 45.9073 43.4152 45.8873 43.3953L39.6922 37.2243C38.0081 35.5468 36.7851 33.5097 36.0633 31.313C36.0633 31.293 36.0633 31.273 36.0633 31.253C36.0633 31.1931 36.0834 31.1532 36.0834 31.0933C36.0834 31.0733 36.0834 31.0733 36.0834 31.0733V31.0533C36.1034 30.9735 36.1034 30.8936 36.1034 30.8137C36.1034 30.7937 36.1034 30.7937 36.1034 30.7737C36.1034 30.7338 36.1034 30.6939 36.1034 30.6539C36.1034 30.614 36.1034 30.574 36.1034 30.5341C36.1034 30.4342 36.1034 30.3544 36.1034 30.2545V22.6856C36.1034 22.5857 36.1034 22.5058 36.1034 22.406C36.1034 22.3661 36.1034 22.3261 36.1034 22.2862C36.1034 22.2462 36.1034 22.2063 36.1034 22.1663C36.1034 22.1464 36.1034 22.1464 36.1034 22.1264C36.1034 22.0465 36.0834 21.9666 36.0834 21.8868V21.8668C36.0834 21.8468 36.0834 21.8468 36.0834 21.8468C36.0834 21.7869 36.0633 21.747 36.0633 21.687C36.0633 21.6671 36.0633 21.6471 36.0633 21.6271C36.7851 19.4104 38.0081 17.3933 39.6922 15.7158L45.8873 9.54481C45.9073 9.52484 45.9274 9.50487 45.9474 9.4849L46.4888 8.94569C47.1704 8.26668 47.1704 7.18826 46.4888 6.50925C45.8071 5.83025 44.7244 5.83025 44.0428 6.50925L43.5015 7.04847C43.4814 7.06844 43.4614 7.08841 43.4413 7.10838L37.2462 13.2793C35.5621 14.9569 33.4971 16.1951 31.2716 16.8941C31.2516 16.8941 31.2115 16.8941 31.1914 16.8741C31.1513 16.8741 31.1112 16.8541 31.0712 16.8541C31.0511 16.8541 31.0311 16.8541 31.011 16.8541C30.9509 16.8541 30.8907 16.8341 30.8306 16.8341C30.8105 16.8341 30.7704 16.8341 30.7504 16.8341H30.7303C30.6902 16.8341 30.6301 16.8341 30.59 16.8341C30.5098 16.8341 30.4095 16.8341 30.3093 16.8341H22.7108C22.6105 16.8341 22.5303 16.8341 22.4301 16.8341C22.39 16.8341 22.3298 16.8341 22.2897 16.8341C22.2697 16.8341 22.2697 16.8341 22.2697 16.8341C22.2496 16.8341 22.2095 16.8341 22.1895 16.8341C22.1293 16.8341 22.0692 16.8541 22.009 16.8541C21.989 16.8541 21.9689 16.8541 21.9489 16.8541C21.9088 16.8541 21.8687 16.8741 21.8286 16.8741C21.8086 16.8741 21.7685 16.8741 21.7484 16.8941C19.5029 16.255 17.4379 15.0168 15.7538 13.3393L9.55868 7.16829C9.53863 7.14832 9.51858 7.12835 9.49853 7.10838L8.95721 6.56917C8.27555 5.89016 7.19291 5.89016 6.51125 6.56917C5.82958 7.24817 5.82958 8.3266 6.51125 9.0056L7.05257 9.54481C7.07262 9.56478 7.09267 9.58475 7.11271 9.60472L13.3078 15.7757C14.9919 17.4532 16.2149 19.4903 16.9367 21.687C16.9367 21.707 16.9367 21.727 16.9367 21.747C16.9367 21.8069 16.9166 21.8468 16.9166 21.9067V21.9267V21.9467C16.8966 22.0265 16.8966 22.1064 16.8966 22.1863C16.8966 22.2063 16.8966 22.2063 16.8966 22.2263C16.8966 22.2662 16.8966 22.3061 16.8966 22.3461C16.8966 22.386 16.8966 22.426 16.8966 22.4659C16.8966 22.5658 16.8966 22.6456 16.8966 22.7455V30.3144C16.8966 30.4143 16.8966 30.4942 16.8966 30.594C16.8966 30.634 16.8966 30.6739 16.8966 30.7138C16.8966 30.7538 16.8966 30.7937 16.8966 30.8337C16.8966 30.8536 16.8966 30.8536 16.8966 30.8736C16.8966 30.9535 16.9166 31.0334 16.9166 31.1132V31.1332V31.1532C16.9166 31.2131 16.9367 31.253 16.9367 31.313C16.9367 31.3329 16.9367 31.3529 16.9367 31.3729C16.2149 33.5896 14.9919 35.6067 13.3078 37.2842L7.11271 43.4552C7.09267 43.4752 7.07262 43.4951 7.05257 43.5151L6.51125 44.0543C5.82958 44.7333 5.82958 45.8117 6.51125 46.4907C7.19291 47.1698 8.27555 47.1698 8.95721 46.4907L9.49853 45.9515C9.51858 45.9316 9.53863 45.9116 9.55868 45.8916L15.7538 39.7207C17.4379 38.0431 19.5029 36.8049 21.7284 36.1059C21.7484 36.1059 21.7885 36.1059 21.8086 36.1259C21.8487 36.1259 21.8888 36.1459 21.9289 36.1459C21.9489 36.1459 21.969 36.1459 21.989 36.1459C22.0491 36.1459 22.1093 36.1659 22.1694 36.1659C22.1895 36.1659 22.2296 36.1659 22.2496 36.1659H22.2697C22.3098 36.1659 22.3699 36.1659 22.41 36.1659C22.4902 36.1659 22.5905 36.1659 22.6907 36.1659H30.2892C30.3895 36.1659 30.4697 36.1659 30.5699 36.1659C30.61 36.1659 30.6702 36.1659 30.7103 36.1659H30.7303C30.7504 36.1659 30.7905 36.1659 30.8105 36.1659C30.8707 36.1659 30.9308 36.1459 30.991 36.1459C31.011 36.1459 31.0311 36.1459 31.0511 36.1459C31.0912 36.1459 31.1313 36.1259 31.1714 36.1259C31.1914 36.1259 31.2315 36.1259 31.2516 36.1059C33.477 36.8049 35.5421 38.0431 37.2262 39.7207L43.4213 45.8916C43.4413 45.9116 43.4614 45.9316 43.4814 45.9515L44.0227 46.4907C44.7044 47.1698 45.787 47.1698 46.4687 46.4907C47.1504 45.8117 47.1504 44.7333 46.4687 44.0543L45.9474 43.4552Z" fill="black"/>
<path d="M32.7453 31.1088C32.1896 31.6411 31.5347 32.1142 30.8202 32.4887C29.173 33.3364 27.3869 33.5927 25.7397 33.297L30.3836 26.6143L32.7453 31.1088Z" fill="#FFB500"/>
<path d="M33.5191 23.6179C33.7374 24.3276 33.8763 25.0767 33.8763 25.8652C33.8962 27.6394 33.3008 29.2756 32.2887 30.5372L28.3989 23.6573L33.5191 23.6179Z" fill="#FF8A00"/>
<path d="M27.5654 18.8474C28.3196 19.0445 29.0737 19.3402 29.7881 19.7739C31.4155 20.7399 32.5864 22.1198 33.2214 23.6771L24.9458 23.2237L27.5654 18.8474Z" fill="#FF7300"/>
<path d="M20.4805 21.8042C21.056 21.2719 21.7109 20.7988 22.465 20.4242C24.1519 19.5766 25.9777 19.34 27.6249 19.6357L22.7826 26.3184L20.4805 21.8042Z" fill="#FF5C00"/>
<path d="M19.9247 29.4922C19.6865 28.7629 19.5675 27.9941 19.5476 27.1858C19.5278 25.3525 20.1033 23.6572 21.0956 22.3364L25.0449 29.4134L19.9247 29.4922Z" fill="#FF6900"/>
<path d="M26.1563 33.8686C25.3823 33.7306 24.6282 33.4744 23.8939 33.0998C22.2467 32.2522 21.0361 30.892 20.3416 29.3544L28.637 29.1572L26.1563 33.8686Z" fill="#FFD100"/>
<path d="M33.281 19.8527C31.5147 18.0983 29.1531 17.1323 26.6525 17.1323C24.152 17.1323 21.7904 18.0983 20.0241 19.8527C18.2578 21.6072 17.2854 23.953 17.2854 26.4369C17.2854 28.9207 18.2578 31.2665 20.0241 33.021C21.7904 34.7755 24.152 35.7414 26.6525 35.7414C29.1531 35.7414 31.5147 34.7755 33.281 33.021C35.0472 31.2665 36.0197 28.9207 36.0197 26.4369C36.0197 23.953 35.0472 21.6072 33.281 19.8527ZM26.9899 33.0407L30.1851 27.5211L31.8918 30.478C30.7606 31.9565 28.9943 32.9422 26.9899 33.0407ZM21.0759 30.0246H27.486L25.7595 32.9816C23.7948 32.7253 22.1079 31.6017 21.0759 30.0246ZM28.1013 28.9404H25.184L23.7352 26.4369L25.184 23.9333H28.1013L29.55 26.4369L28.1013 28.9404ZM26.2953 19.8527L23.12 25.3329L21.4133 22.3957C22.5445 20.9369 24.3108 19.971 26.2953 19.8527ZM25.8389 22.8491L27.5456 19.9119C29.5103 20.1681 31.1972 21.2721 32.2292 22.8491H25.8389ZM23.9337 28.9404H20.5004C20.1829 28.1716 20.0043 27.3239 20.0043 26.4566C20.0043 25.3724 20.2622 24.3473 20.7385 23.4602L23.9337 28.9404ZM29.3714 23.9333H32.7848C33.1024 24.7021 33.281 25.5695 33.281 26.4566C33.281 27.5408 33.023 28.5462 32.5665 29.4332L29.3714 23.9333Z" fill="black"/>
<path d="M25.4901 24H28.5099L30 26.5L28.5099 29H25.4901L24 26.5L25.4901 24Z" fill="white"/>
<path d="M138.81 41.5045C138.81 41.8668 138.761 42.1808 138.664 42.4706C138.567 42.7604 138.445 43.0019 138.299 43.2192C138.153 43.4366 137.983 43.6298 137.789 43.7747C137.594 43.9196 137.375 44.0404 137.156 44.137C136.938 44.2336 136.719 44.306 136.5 44.3543C136.281 44.4026 136.062 44.4268 135.868 44.4268H132.099C131.807 44.4268 131.491 44.3785 131.151 44.2819C130.811 44.1853 130.495 44.0162 130.203 43.7747C129.911 43.5332 129.668 43.2434 129.473 42.8811C129.279 42.5189 129.182 42.06 129.182 41.5287V38.7272C129.182 38.1959 129.279 37.737 129.473 37.3748C129.668 37.0125 129.911 36.6985 130.203 36.4812C130.495 36.2397 130.811 36.0948 131.151 35.974C131.491 35.8774 131.807 35.8291 132.099 35.8291H135.868C136.403 35.8291 136.865 35.9257 137.229 36.1189C137.594 36.3121 137.91 36.5536 138.129 36.8434C138.348 37.1332 138.518 37.4472 138.639 37.7853C138.737 38.1234 138.785 38.4374 138.785 38.7272V41.5045H138.81ZM136.743 38.7272C136.743 38.4374 136.67 38.22 136.524 38.0993C136.378 37.9544 136.16 37.8819 135.892 37.8819H132.148C131.88 37.8819 131.662 37.9544 131.516 38.0993C131.37 38.2442 131.297 38.4374 131.297 38.7272V41.5287C131.297 41.7943 131.37 42.0117 131.516 42.1566C131.662 42.3015 131.88 42.374 132.148 42.374H135.892C136.184 42.374 136.378 42.3015 136.524 42.1566C136.67 42.0117 136.743 41.7943 136.743 41.5287V38.7272Z" fill="url(#paint4_linear)"/>
<path d="M118.752 41.5045C118.752 41.8668 118.703 42.1807 118.606 42.4705C118.508 42.7603 118.387 43.0019 118.241 43.2192C118.095 43.4366 117.925 43.6298 117.73 43.7747C117.536 43.9196 117.317 44.0403 117.098 44.1369C116.879 44.2335 116.661 44.306 116.442 44.3543C116.223 44.4026 116.004 44.4268 115.81 44.4268H112.041V42.3498H115.81C116.077 42.3498 116.296 42.2773 116.442 42.1324C116.588 41.9875 116.661 41.7702 116.661 41.5045V38.703C116.661 38.4132 116.588 38.1959 116.442 38.0751C116.296 37.9302 116.101 37.8577 115.81 37.8577H112.065C111.774 37.8577 111.579 37.9302 111.433 38.0751C111.287 38.22 111.214 38.4132 111.214 38.703V47.1316H109.124V38.7272C109.124 38.3649 109.172 38.051 109.269 37.7611C109.367 37.4713 109.488 37.2298 109.634 37.0125C109.78 36.7951 109.95 36.6019 110.169 36.457C110.364 36.3121 110.582 36.1913 110.801 36.0947C111.02 35.9981 111.239 35.9257 111.458 35.8774C111.676 35.8291 111.895 35.8049 112.09 35.8049H115.858C116.223 35.8049 116.539 35.8532 116.831 35.9498C117.123 36.0464 117.366 36.1672 117.585 36.3121C117.803 36.457 117.998 36.6261 118.144 36.8193C118.29 37.0125 118.411 37.2298 118.508 37.4472C118.606 37.6645 118.679 37.8819 118.727 38.0993C118.776 38.3166 118.8 38.534 118.8 38.7272V41.5045H118.752Z" fill="url(#paint5_linear)"/>
<path d="M127.991 37.8819H123.299C123.007 37.8819 122.812 37.9543 122.666 38.0993C122.521 38.2442 122.448 38.4374 122.448 38.7272V44.4509H120.357V38.7272C120.357 38.3649 120.405 38.0509 120.503 37.7611C120.6 37.4713 120.721 37.2298 120.867 37.0125C121.013 36.7951 121.183 36.6019 121.402 36.457C121.597 36.3121 121.815 36.1913 122.034 36.0947C122.253 35.9981 122.472 35.9257 122.691 35.8774C122.91 35.8291 123.128 35.8049 123.323 35.8049H128.04V37.8819H127.991Z" fill="url(#paint6_linear)"/>
<defs>
<linearGradient id="paint0_linear" x1="0" y1="8.00753" x2="15.9754" y2="8.00753" gradientUnits="userSpaceOnUse">
<stop stop-color="#FF9E00"/>
<stop offset="1" stop-color="#FF5C00"/>
</linearGradient>
<linearGradient id="paint1_linear" x1="0" y1="45.0118" x2="16.0148" y2="45.0118" gradientUnits="userSpaceOnUse">
<stop stop-color="#FF9E00"/>
<stop offset="1" stop-color="#FF5C00"/>
</linearGradient>
<linearGradient id="paint2_linear" x1="37.0092" y1="44.9921" x2="53.0239" y2="44.9921" gradientUnits="userSpaceOnUse">
<stop stop-color="#FF9E00"/>
<stop offset="1" stop-color="#FF5C00"/>
</linearGradient>
<linearGradient id="paint3_linear" x1="36.9895" y1="7.98775" x2="53.0042" y2="7.98775" gradientUnits="userSpaceOnUse">
<stop stop-color="#FF9E00"/>
<stop offset="1" stop-color="#FF5C00"/>
</linearGradient>
<linearGradient id="paint4_linear" x1="109.142" y1="41.4633" x2="138.821" y2="41.4633" gradientUnits="userSpaceOnUse">
<stop stop-color="#FF9E00"/>
<stop offset="1" stop-color="#FF5C00"/>
</linearGradient>
<linearGradient id="paint5_linear" x1="109.142" y1="41.4633" x2="138.821" y2="41.4633" gradientUnits="userSpaceOnUse">
<stop stop-color="#FF9E00"/>
<stop offset="1" stop-color="#FF5C00"/>
</linearGradient>
<linearGradient id="paint6_linear" x1="109.143" y1="41.4633" x2="138.821" y2="41.4633" gradientUnits="userSpaceOnUse">
<stop stop-color="#FF9E00"/>
<stop offset="1" stop-color="#FF5C00"/>
</linearGradient>
</defs>
</svg>
