<svg width="76" height="77" viewBox="0 0 76 77" fill="none" xmlns="http://www.w3.org/2000/svg">
<path d="M66.3278 31.7128L38.0001 22.3227L9.67249 31.7128L0 47.0768L8.90443 50.0285V66.3587L38 76.0033L67.0956 66.3587V50.0285L76 47.0768L66.3278 31.7128ZM57.7921 33.5751L38.0001 40.1357L18.2082 33.5751L38.0001 27.0145L57.7921 33.5751ZM6.79768 44.6384L12.0864 36.2375L34.6013 43.7008L29.3127 52.1015L6.79768 44.6384ZM13.358 51.5048L31.2228 57.4266L35.7734 50.1983V70.5735L13.358 63.1432V51.5048ZM40.2268 70.5734V50.1982L44.7775 57.4265L62.6423 51.5046V63.143L40.2268 70.5734ZM46.6875 52.1017L41.399 43.7009L63.9139 36.2376L69.2026 44.6385L46.6875 52.1017Z" fill="#828282"/>
<path d="M35.7734 0H40.2268V14.8705H35.7734V0Z" fill="#828282"/>
<path d="M14.8308 6.80472L18.6875 4.57802L26.1227 17.4559L22.2661 19.6826L14.8308 6.80472Z" fill="#828282"/>
<path d="M49.8767 17.4575L57.312 4.57963L61.1686 6.80633L53.7334 19.6842L49.8767 17.4575Z" fill="#828282"/>
</svg>
