<svg width="71" height="17" viewBox="0 0 71 17" fill="none" xmlns="http://www.w3.org/2000/svg">
<path d="M8.42373 0L10.315 5.82065H16.4352L11.4838 9.41802L13.3751 15.2387L8.42373 11.6413L3.47239 15.2387L5.36363 9.41802L0.412287 5.82065H6.53248L8.42373 0Z" fill="#FF7301"/>
<path d="M26.4746 0L28.3658 5.82065H34.486L29.5347 9.41802L31.4259 15.2387L26.4746 11.6413L21.5232 15.2387L23.4145 9.41802L18.4631 5.82065H24.5833L26.4746 0Z" fill="#FF7301"/>
<path d="M44.5254 0L46.4167 5.82065H52.5369L47.5855 9.41802L49.4768 15.2387L44.5254 11.6413L39.5741 15.2387L41.4653 9.41802L36.514 5.82065H42.6342L44.5254 0Z" fill="#FF7301"/>
<path d="M62.5763 0L64.4675 5.82065H70.5877L65.6364 9.41802L67.5276 15.2387L62.5763 11.6413L57.6249 15.2387L59.5162 9.41802L54.5648 5.82065H60.685L62.5763 0Z" fill="#FF7301"/>
</svg>
