<svg width="62" height="70" viewBox="0 0 62 70" fill="none" xmlns="http://www.w3.org/2000/svg">
<path d="M59.4727 8.20306H57.8548C48.5863 8.20306 39.611 5.4855 31.8993 0.344327C31.2103 -0.114775 30.313 -0.114775 29.6241 0.344327C21.9123 5.4855 12.9372 8.20306 3.66871 8.20306H2.05078C0.918204 8.20306 0 9.12127 0 10.2538V29.8863C0 48.547 12.3882 64.8323 30.1983 69.9211C30.3825 69.9738 30.5721 70 30.7617 70C30.9514 70 31.141 69.9738 31.3252 69.9211C49.1022 64.8417 61.5235 48.5779 61.5235 29.8863V10.2538C61.5235 9.12127 60.6053 8.20306 59.4727 8.20306ZM57.4219 29.8863C57.4219 46.3601 46.4882 61.0481 30.7617 65.8115C15.0352 61.0481 4.10157 46.3601 4.10157 29.8863V12.3029C13.5769 12.2231 22.7564 9.5317 30.7617 4.49402C38.7671 9.5317 47.9466 12.2231 57.4219 12.3029V29.8863Z" fill="#828282"/>
<path d="M39.6153 33.1257C38.5031 32.9031 37.4242 33.6237 37.2021 34.7342L36.3813 38.8357C36.159 39.9464 36.8793 41.0268 37.9898 41.2491C38.1257 41.2763 38.261 41.2893 38.3944 41.2893C39.3518 41.2893 40.2082 40.6153 40.4031 39.6405L41.2238 35.5389C41.446 34.4285 40.7259 33.348 39.6153 33.1257Z" fill="#828282"/>
<path d="M24.3215 34.7342C24.0994 33.6238 23.0198 32.9034 21.9083 33.1257C20.7977 33.3479 20.0775 34.4284 20.2998 35.5391L21.1205 39.6407C21.3156 40.6155 22.1716 41.2895 23.1292 41.2895C23.2625 41.2895 23.398 41.2764 23.5338 41.2493C24.6443 41.0271 25.3646 39.9466 25.1422 38.8359L24.3215 34.7342Z" fill="#828282"/>
<path d="M19.6205 16.768C18.6878 16.1255 17.4107 16.3607 16.7683 17.2934C16.1257 18.2261 16.361 19.5032 17.2937 20.1457L24.1698 24.8827H10.2959C8.86647 24.847 7.76876 26.3211 8.3654 27.7344L16.5528 48.203C16.8643 48.9815 17.6184 49.4921 18.457 49.4921H43.0664C43.9051 49.4921 44.6591 48.9816 44.9705 48.203L53.1579 27.7344C53.757 26.3155 52.6603 24.8528 51.2257 24.8827H37.3536L44.2299 20.1458C45.1626 19.5032 45.3979 18.2263 44.7553 17.2936C44.1127 16.361 42.8361 16.1256 41.9031 16.7682L30.7617 24.4432L19.6205 16.768ZM41.678 45.3905H19.8454L13.2829 28.9843H48.2404L41.678 45.3905Z" fill="#828282"/>
<path d="M30.7617 33.0859C29.6291 33.0859 28.7109 34.0041 28.7109 35.1367V39.2383C28.7109 40.3709 29.6291 41.2891 30.7617 41.2891C31.8943 41.2891 32.8125 40.3709 32.8125 39.2383V35.1367C32.8125 34.0041 31.8943 33.0859 30.7617 33.0859Z" fill="#828282"/>
</svg>
