<svg width="20" height="20" viewBox="0 0 20 20" fill="none" xmlns="http://www.w3.org/2000/svg">
<path fill-rule="evenodd" clip-rule="evenodd" d="M5.80969 0H14.1904C17.3938 0 20 2.60621 20 5.80969V14.1904C20 17.3938 17.3938 20 14.1903 20H5.80969C2.60621 20 0 17.3938 0 14.1903V5.80969C0 2.60621 2.60621 0 5.80969 0ZM14.1904 18.4375C16.5322 18.4375 18.4375 16.5322 18.4375 14.1903V5.80969C18.4375 3.46777 16.5322 1.5625 14.1903 1.5625H5.80969C3.46777 1.5625 1.5625 3.46777 1.5625 5.80969V14.1904C1.5625 16.5322 3.46777 18.4375 5.80969 18.4375H14.1904Z" fill="#BABABA"/>
<path fill-rule="evenodd" clip-rule="evenodd" d="M4.60938 10C4.60938 7.02758 7.02758 4.60938 10 4.60938C12.9724 4.60938 15.3906 7.02758 15.3906 10C15.3906 12.9724 12.9724 15.3906 10 15.3906C7.02758 15.3906 4.60938 12.9724 4.60938 10ZM6.17188 10C6.17188 12.1108 7.88918 13.8281 10 13.8281C12.1108 13.8281 13.8281 12.1108 13.8281 10C13.8281 7.88918 12.1108 6.17188 10 6.17188C7.88918 6.17188 6.17188 7.88918 6.17188 10Z" fill="#BABABA"/>
<path d="M15.4688 5.31238C15.9002 5.31238 16.25 4.9626 16.25 4.53113C16.25 4.09966 15.9002 3.74988 15.4688 3.74988C15.0373 3.74988 14.6875 4.09966 14.6875 4.53113C14.6875 4.9626 15.0373 5.31238 15.4688 5.31238Z" fill="#BABABA"/>
</svg>
