<svg width="20" height="19" viewBox="0 0 20 19" fill="none" xmlns="http://www.w3.org/2000/svg">
<path fill-rule="evenodd" clip-rule="evenodd" d="M2.42148 0.0256348C0.957541 0.0256348 0 0.979924 0 2.23485C0 3.46242 0.929838 4.44567 2.36469 4.44567H2.39327C3.88557 4.44567 4.81364 3.46261 4.81364 2.23485C4.78552 0.979924 3.88557 0.0256348 2.42148 0.0256348ZM19.9589 11.6463V18.9796H15.681V12.1374C15.681 10.4186 15.0623 9.24562 13.5139 9.24562C12.3318 9.24562 11.6284 10.0361 11.3189 10.8009C11.2061 11.0742 11.177 11.4547 11.177 11.8374V18.9796H6.89771C6.89771 18.9796 6.95534 7.39123 6.89771 6.19059H11.1766V8.00338C11.1725 8.00977 11.1678 8.0164 11.1632 8.02301L11.1632 8.02303C11.158 8.03041 11.1528 8.03776 11.1485 8.0447H11.1766V8.00338C11.7451 7.13321 12.7604 5.89014 15.0328 5.89014C17.8483 5.89009 19.9589 7.71801 19.9589 11.6463ZM4.53183 18.9797H0.25415V6.19067H4.53183V18.9797Z" fill="#BABABA"/>
</svg>
