<svg width="120" height="43" viewBox="0 0 120 43" fill="none" xmlns="http://www.w3.org/2000/svg">
<path d="M56 26H48.7347C48.3673 26 47.9592 25.945 47.5306 25.8165C47.0816 25.7064 46.6939 25.5046 46.3061 25.2477C45.9388 24.9725 45.6122 24.6239 45.3673 24.2018C45.1224 23.7798 45 23.2477 45 22.6239V19.3761C45 19.156 45.0204 18.8991 45.0816 18.6606C45.1429 18.4037 45.2245 18.1651 45.3469 17.9083C45.4694 17.6514 45.6327 17.4128 45.8163 17.1927C46.0204 16.9725 46.2449 16.7706 46.5306 16.5872C46.8163 16.422 47.1224 16.2752 47.4898 16.1651C47.8571 16.055 48.2653 16 48.7143 16H55.9592V18.4037H48.7347C48.3878 18.4037 48.1225 18.4771 47.9388 18.6422C47.7551 18.8073 47.6735 19.0459 47.6735 19.3761V22.6055C47.6735 22.9174 47.7755 23.156 47.9592 23.3211C48.1429 23.4862 48.4082 23.578 48.7755 23.578H56V26Z" fill="black"/>
<path d="M69 22.636C69 23.0588 68.9404 23.4265 68.8212 23.7574C68.702 24.0882 68.5629 24.3824 68.3642 24.6213C68.1854 24.8787 67.9669 25.0809 67.7086 25.2647C67.4702 25.4485 67.2119 25.5772 66.9338 25.6875C66.6556 25.7978 66.3974 25.8713 66.1192 25.9265C65.8411 25.9816 65.5828 26 65.3245 26H60.6358C60.2781 26 59.8808 25.9449 59.4636 25.8162C59.0265 25.7059 58.649 25.5037 58.2715 25.2463C57.9139 24.9706 57.596 24.6213 57.3576 24.1985C57.1192 23.7757 57 23.2426 57 22.6176V19.364C57 18.739 57.1192 18.2243 57.3576 17.8015C57.596 17.3787 57.9139 17.0294 58.2715 16.7537C58.6291 16.4779 59.0265 16.2941 59.4636 16.1838C59.9007 16.0735 60.2781 16 60.6358 16H65.3245C66 16 66.5563 16.1103 67.0331 16.3309C67.4901 16.5515 67.8675 16.8272 68.1656 17.1765C68.4437 17.5074 68.6623 17.875 68.7815 18.2794C68.9205 18.6838 68.9801 19.0331 68.9801 19.3824V22.636H69ZM66.3974 19.4007C66.3974 19.0699 66.298 18.8125 66.1192 18.6654C65.9404 18.5 65.6821 18.4265 65.3444 18.4265H60.6755C60.3377 18.4265 60.0596 18.5 59.8808 18.6654C59.702 18.8309 59.6026 19.0699 59.6026 19.3824V22.636C59.6026 22.9485 59.702 23.1875 59.8808 23.3529C60.0596 23.5184 60.3179 23.6103 60.6755 23.6103H65.3444C65.702 23.6103 65.9603 23.5184 66.1391 23.3529C66.3179 23.1875 66.3974 22.9485 66.3974 22.636V19.4007Z" fill="black"/>
<path d="M84 23.0588C84 23.5098 83.9404 23.902 83.8212 24.2549C83.702 24.6078 83.5629 24.9216 83.3642 25.1765C83.1854 25.451 82.9669 25.6667 82.7086 25.8627C82.4702 26.0588 82.2119 26.1961 81.9338 26.3137C81.6556 26.4314 81.3974 26.5098 81.1192 26.5686C80.8411 26.6275 80.5828 26.6471 80.3444 26.6471H75.6556V24.0784H80.3444C80.6821 24.0784 80.9603 23.9804 81.1192 23.8039C81.298 23.6274 81.3775 23.3725 81.3775 23.0392V19.6078C81.3775 19.2549 81.298 18.9804 81.1192 18.8235C80.9404 18.6471 80.6821 18.5686 80.3444 18.5686H75.6755C75.3179 18.5686 75.0596 18.6471 74.8808 18.8235C74.702 19 74.6027 19.2549 74.6027 19.5882V30H72V19.5686C72 19.1373 72.0596 18.7255 72.1788 18.3922C72.298 18.0392 72.4371 17.7255 72.6358 17.4706C72.8344 17.1961 73.053 16.9804 73.2914 16.7843C73.5298 16.5882 73.7881 16.451 74.0662 16.3333C74.3444 16.2157 74.6026 16.1176 74.8808 16.0784C75.1589 16.0196 75.4172 16 75.6556 16H80.3444C80.8013 16 81.1987 16.0588 81.5364 16.1765C81.894 16.2941 82.2119 16.4314 82.4702 16.6275C82.7483 16.8039 82.9669 17.0196 83.1656 17.2745C83.3642 17.5098 83.5033 17.7647 83.6225 18.0392C83.7417 18.3137 83.8411 18.5686 83.8808 18.8431C83.9404 19.1176 83.9603 19.3725 83.9603 19.6078V23.0588H84Z" fill="black"/>
<path d="M96 18.9723H91.265V27H88.515V18.9723H85V16.4321H88.515V13H91.265V16.4515H96V18.9723Z" fill="black"/>
<path d="M109 19.3211C109 19.6514 108.94 20.0183 108.799 20.4037C108.678 20.789 108.457 21.1376 108.176 21.4679C107.894 21.7982 107.513 22.0734 107.05 22.2936C106.588 22.5138 106.025 22.6239 105.362 22.6239H100.618V20.3486H105.362C105.724 20.3486 106.005 20.2569 106.186 20.055C106.387 19.8532 106.487 19.6147 106.487 19.3028C106.487 18.9908 106.387 18.7339 106.166 18.5688C105.945 18.3853 105.683 18.2936 105.362 18.2936H100.618C100.256 18.2936 99.9749 18.3853 99.794 18.5872C99.593 18.789 99.4925 19.0275 99.4925 19.3394V22.6972C99.4925 23.0092 99.593 23.2661 99.8141 23.4495C100.035 23.633 100.296 23.7248 100.638 23.7248H105.362V26H100.618C100.256 26 99.8543 25.945 99.4322 25.8165C99.01 25.7064 98.6281 25.5046 98.2663 25.2477C97.9045 24.9908 97.603 24.6422 97.3618 24.2202C97.1206 23.7982 97 23.2844 97 22.6789V19.3028C97 18.9725 97.0603 18.6055 97.201 18.2202C97.3216 17.8349 97.5427 17.4862 97.8241 17.156C98.1055 16.8257 98.4874 16.5505 98.9498 16.3303C99.4121 16.1101 99.9749 16 100.638 16H105.382C105.744 16 106.146 16.055 106.568 16.1835C106.99 16.2936 107.372 16.4954 107.734 16.7523C108.095 17.0092 108.397 17.3578 108.638 17.7798C108.879 18.2018 109 18.7156 109 19.3211Z" fill="black"/>
<path d="M120 18.3757H113.854C113.479 18.3757 113.208 18.4494 113.021 18.6151C112.833 18.7808 112.729 19.0203 112.729 19.3333V26H110V19.3518C110 18.9466 110.062 18.5599 110.187 18.2468C110.312 17.9153 110.458 17.6206 110.667 17.3812C110.875 17.1234 111.104 16.9208 111.354 16.7366C111.604 16.5525 111.875 16.4236 112.167 16.3131C112.458 16.2026 112.729 16.1105 113.021 16.0737C113.312 16.0184 113.583 16 113.833 16H120V18.3757Z" fill="black"/>
<path d="M1.85258 6.5C1.85258 3.93842 3.92875 1.84113 6.5 1.84113C9.05528 1.84113 11.1474 3.92241 11.1474 6.5H13C12.984 2.91379 10.0614 0 6.48403 0C2.90663 0 0 2.91379 0 6.5C0 10.0862 2.90663 13 6.48403 13V11.1589C3.92875 11.1589 1.85258 9.07759 1.85258 6.5Z" fill="url(#paint0_linear)"/>
<path d="M6.5 41.1474C3.93842 41.1474 1.84113 39.0713 1.84113 36.5C1.84113 33.9447 3.92241 31.8526 6.5 31.8526V30C2.91379 30.016 0 32.9386 0 36.516C0 40.0934 2.91379 43 6.5 43C10.0862 43 13 40.0934 13 36.516H11.1589C11.1589 39.0713 9.07759 41.1474 6.5 41.1474Z" fill="url(#paint1_linear)"/>
<path d="M41.1749 36.5C41.1749 39.0616 39.0936 41.1589 36.516 41.1589C33.9544 41.1589 31.8571 39.0776 31.8571 36.5H30C30 40.0862 32.9138 43 36.5 43C40.0862 43 43 40.0862 43 36.5C43 32.9138 40.0862 30 36.5 30V31.8411C39.0776 31.8411 41.1749 33.9224 41.1749 36.5Z" fill="url(#paint2_linear)"/>
<path d="M36.5 1.85258C39.0616 1.85258 41.1589 3.92875 41.1589 6.5C41.1589 9.05528 39.0776 11.1474 36.5 11.1474V13C40.0862 13 43 10.0934 43 6.51597C43 2.90663 40.0862 0 36.5 0C32.9138 0 30 2.90663 30 6.48403H31.8571C31.8411 3.92875 33.9384 1.85258 36.5 1.85258Z" fill="url(#paint3_linear)"/>
<path d="M37.1528 35.1469C37.1367 35.1308 37.1205 35.1147 37.1044 35.0986L32.1181 30.1318C30.7626 28.7815 29.7782 27.142 29.1973 25.3738C29.1973 25.3578 29.1973 25.3417 29.1973 25.3256C29.1973 25.2774 29.2134 25.2453 29.2134 25.197C29.2134 25.181 29.2134 25.181 29.2134 25.181V25.1649C29.2296 25.1006 29.2296 25.0363 29.2296 24.972C29.2296 24.9559 29.2296 24.9559 29.2296 24.9398C29.2296 24.9077 29.2296 24.8755 29.2296 24.8434C29.2296 24.8113 29.2296 24.7791 29.2296 24.747C29.2296 24.6666 29.2296 24.6023 29.2296 24.5219V18.4299C29.2296 18.3495 29.2296 18.2852 29.2296 18.2048C29.2296 18.1727 29.2296 18.1405 29.2296 18.1084C29.2296 18.0762 29.2296 18.0441 29.2296 18.0119C29.2296 17.9959 29.2296 17.9959 29.2296 17.9798C29.2296 17.9155 29.2134 17.8512 29.2134 17.7869V17.7708C29.2134 17.7547 29.2134 17.7547 29.2134 17.7547C29.2134 17.7065 29.1973 17.6744 29.1973 17.6262C29.1973 17.6101 29.1973 17.594 29.1973 17.5779C29.7782 15.7937 30.7626 14.1702 32.1181 12.82L37.1044 7.85314C37.1205 7.83707 37.1367 7.82099 37.1528 7.80492L37.5885 7.37092C38.1372 6.8244 38.1372 5.95641 37.5885 5.40989C37.0399 4.86337 36.1685 4.86337 35.6198 5.40989L35.1841 5.84389C35.168 5.85996 35.1518 5.87604 35.1357 5.89211L30.1494 10.859C28.7939 12.2092 27.1318 13.2058 25.3406 13.7684C25.3245 13.7684 25.2922 13.7684 25.276 13.7523C25.2438 13.7523 25.2115 13.7362 25.1792 13.7362C25.1631 13.7362 25.1469 13.7362 25.1308 13.7362C25.0824 13.7362 25.034 13.7202 24.9856 13.7202C24.9694 13.7202 24.9372 13.7202 24.921 13.7202H24.9049C24.8726 13.7202 24.8242 13.7202 24.7919 13.7202C24.7274 13.7202 24.6467 13.7202 24.566 13.7202H18.4501C18.3694 13.7202 18.3049 13.7202 18.2242 13.7202C18.1919 13.7202 18.1435 13.7202 18.1112 13.7202C18.0951 13.7202 18.0951 13.7202 18.0951 13.7202C18.079 13.7202 18.0467 13.7202 18.0306 13.7202C17.9822 13.7202 17.9337 13.7362 17.8853 13.7362C17.8692 13.7362 17.8531 13.7362 17.8369 13.7362C17.8046 13.7362 17.7724 13.7523 17.7401 13.7523C17.724 13.7523 17.6917 13.7523 17.6756 13.7684C15.8682 13.254 14.2061 12.2574 12.8506 10.9072L7.8643 5.94033C7.84817 5.92426 7.83203 5.90818 7.81589 5.89211L7.3802 5.45811C6.83154 4.91159 5.96015 4.91159 5.41149 5.45811C4.86284 6.00463 4.86284 6.87263 5.41149 7.41914L5.84719 7.85314C5.86333 7.86922 5.87946 7.88529 5.8956 7.90136L10.8819 12.8682C12.2374 14.2185 13.2218 15.858 13.8027 17.6262C13.8027 17.6422 13.8027 17.6583 13.8027 17.6744C13.8027 17.7226 13.7866 17.7548 13.7866 17.803V17.819V17.8351C13.7704 17.8994 13.7704 17.9637 13.7704 18.028C13.7704 18.0441 13.7704 18.0441 13.7704 18.0602C13.7704 18.0923 13.7704 18.1245 13.7704 18.1566C13.7704 18.1887 13.7704 18.2209 13.7704 18.253C13.7704 18.3334 13.7704 18.3977 13.7704 18.4781V24.5701C13.7704 24.6505 13.7704 24.7148 13.7704 24.7952C13.7704 24.8273 13.7704 24.8595 13.7704 24.8916C13.7704 24.9238 13.7704 24.9559 13.7704 24.9881C13.7704 25.0041 13.7704 25.0041 13.7704 25.0202C13.7704 25.0845 13.7866 25.1488 13.7866 25.2131V25.2292V25.2453C13.7866 25.2935 13.8027 25.3256 13.8027 25.3738C13.8027 25.3899 13.8027 25.406 13.8027 25.4221C13.2218 27.2063 12.2374 28.8298 10.8819 30.18L5.8956 35.1469C5.87946 35.1629 5.86333 35.179 5.84719 35.1951L5.41149 35.6291C4.86284 36.1756 4.86284 37.0436 5.41149 37.5901C5.96015 38.1366 6.83154 38.1366 7.3802 37.5901L7.81589 37.1561C7.83203 37.14 7.84817 37.124 7.8643 37.1079L12.8506 32.141C14.2061 30.7908 15.8682 29.7942 17.6594 29.2316C17.6756 29.2316 17.7078 29.2316 17.724 29.2477C17.7562 29.2477 17.7885 29.2638 17.8208 29.2638C17.8369 29.2638 17.8531 29.2638 17.8692 29.2638C17.9176 29.2638 17.966 29.2798 18.0144 29.2798C18.0306 29.2798 18.0628 29.2798 18.079 29.2798H18.0951C18.1274 29.2798 18.1758 29.2798 18.2081 29.2798C18.2726 29.2798 18.3533 29.2798 18.434 29.2798H24.5499C24.6306 29.2798 24.6951 29.2798 24.7758 29.2798C24.8081 29.2798 24.8565 29.2798 24.8888 29.2798H24.9049C24.921 29.2798 24.9533 29.2798 24.9694 29.2798C25.0178 29.2798 25.0663 29.2638 25.1147 29.2638C25.1308 29.2638 25.1469 29.2638 25.1631 29.2638C25.1954 29.2638 25.2276 29.2477 25.2599 29.2477C25.276 29.2477 25.3083 29.2477 25.3244 29.2316C27.1156 29.7942 28.7778 30.7908 30.1333 32.141L35.1196 37.1079C35.1357 37.124 35.1518 37.14 35.168 37.1561L35.6037 37.5901C36.1523 38.1366 37.0237 38.1366 37.5724 37.5901C38.121 37.0436 38.121 36.1756 37.5724 35.6291L37.1528 35.1469Z" fill="black"/>
<path d="M27 25.3045C26.5241 25.6958 25.9632 26.0436 25.3513 26.319C23.9405 26.9422 22.4108 27.1306 21 26.9132L24.9773 22L27 25.3045Z" fill="#FFB500"/>
<path d="M26.7388 19C26.8982 19.6154 26.9996 20.265 26.9996 20.9487C27.0141 22.4872 26.5794 23.906 25.8403 25L23 19.0342L26.7388 19Z" fill="#FF8A00"/>
<path d="M22.2158 15C22.8537 15.1633 23.4916 15.4082 24.0959 15.7673C25.4724 16.5673 26.4628 17.7102 27 19L20 18.6245L22.2158 15Z" fill="#FF7300"/>
<path d="M17 17.6828C17.4833 17.2916 18.0333 16.944 18.6667 16.6688C20.0833 16.0459 21.6167 15.872 23 16.0893L18.9333 21L17 17.6828Z" fill="#FF5C00"/>
<path d="M16.2747 24C16.1014 23.3884 16.0148 22.7438 16.0004 22.0661C15.9859 20.5289 16.4047 19.1074 17.1266 18L20 23.9339L16.2747 24Z" fill="#FF6900"/>
<path d="M20.9067 28C20.2536 27.8828 19.6172 27.6653 18.9976 27.3473C17.6077 26.6276 16.5861 25.4728 16 24.1674L23 24L20.9067 28Z" fill="#FFD100"/>
<path d="M26.8072 16.1928C25.393 14.7786 23.5021 14 21.5 14C19.4979 14 17.607 14.7786 16.1928 16.1928C14.7786 17.607 14 19.4979 14 21.5C14 23.5021 14.7786 25.393 16.1928 26.8072C17.607 28.2214 19.4979 29 21.5 29C23.5021 29 25.393 28.2214 26.8072 26.8072C28.2214 25.393 29 23.5021 29 21.5C29 19.4979 28.2214 17.607 26.8072 16.1928ZM21.7701 26.8231L24.3284 22.3739L25.6949 24.7574C24.7892 25.9492 23.375 26.7436 21.7701 26.8231ZM17.035 24.3919H22.1674L20.785 26.7754C19.2119 26.5689 17.8612 25.6631 17.035 24.3919ZM22.66 23.518H20.3242L19.1642 21.5L20.3242 19.482H22.66L23.8199 21.5L22.66 23.518ZM21.214 16.1928L18.6716 20.6102L17.3051 18.2426C18.2108 17.0667 19.625 16.2881 21.214 16.1928ZM20.8485 18.6081L22.215 16.2405C23.7881 16.447 25.1388 17.3369 25.965 18.6081H20.8485ZM19.3231 23.518H16.5742C16.3199 22.8983 16.1769 22.215 16.1769 21.5159C16.1769 20.6419 16.3835 19.8157 16.7648 19.1006L19.3231 23.518ZM23.6769 19.482H26.41C26.6642 20.1017 26.8072 20.8008 26.8072 21.5159C26.8072 22.3898 26.6006 23.2002 26.2352 23.9153L23.6769 19.482Z" fill="black"/>
<path d="M20.2417 19H22.7583L24 21L22.7583 23H20.2417L19 21L20.2417 19Z" fill="white"/>
<path d="M112 33.6208C112 33.9157 111.96 34.1713 111.879 34.4073C111.798 34.6433 111.697 34.8399 111.576 35.0169C111.455 35.1938 111.313 35.3511 111.152 35.4691C110.99 35.5871 110.808 35.6854 110.626 35.764C110.444 35.8427 110.263 35.9017 110.081 35.941C109.899 35.9803 109.717 36 109.556 36H106.424C106.182 36 105.919 35.9607 105.636 35.882C105.354 35.8034 105.091 35.6657 104.848 35.4691C104.606 35.2725 104.404 35.0365 104.242 34.7416C104.081 34.4466 104 34.073 104 33.6405V31.3596C104 30.927 104.081 30.5534 104.242 30.2584C104.404 29.9635 104.606 29.7079 104.848 29.5309C105.091 29.3343 105.354 29.2163 105.636 29.118C105.919 29.0393 106.182 29 106.424 29H109.556C110 29 110.384 29.0787 110.687 29.236C110.99 29.3933 111.253 29.5899 111.434 29.8258C111.616 30.0618 111.758 30.3174 111.859 30.5927C111.939 30.868 111.98 31.1236 111.98 31.3596V33.6208H112ZM110.283 31.3596C110.283 31.1236 110.222 30.9466 110.101 30.8483C109.98 30.7303 109.798 30.6713 109.576 30.6713H106.465C106.242 30.6713 106.061 30.7303 105.939 30.8483C105.818 30.9663 105.758 31.1236 105.758 31.3596V33.6405C105.758 33.8567 105.818 34.0337 105.939 34.1517C106.061 34.2697 106.242 34.3287 106.465 34.3287H109.576C109.818 34.3287 109.98 34.2697 110.101 34.1517C110.222 34.0337 110.283 33.8567 110.283 33.6405V31.3596Z" fill="url(#paint4_linear)"/>
<path d="M95.9598 33.5288C95.9598 33.8166 95.9196 34.0661 95.8392 34.2964C95.7588 34.5267 95.6583 34.7186 95.5377 34.8913C95.4171 35.064 95.2764 35.2175 95.1156 35.3326C94.9548 35.4478 94.7739 35.5437 94.593 35.6205C94.4121 35.6972 94.2312 35.7548 94.0503 35.7932C93.8693 35.8316 93.6884 35.8507 93.5276 35.8507H90.4121V34.2004H93.5276C93.7487 34.2004 93.9297 34.1429 94.0503 34.0277C94.1709 33.9126 94.2312 33.7399 94.2312 33.5288V31.3028C94.2312 31.0725 94.1709 30.8998 94.0503 30.8038C93.9297 30.6887 93.7688 30.6311 93.5276 30.6311H90.4322C90.191 30.6311 90.0302 30.6887 89.9095 30.8038C89.7889 30.919 89.7286 31.0725 89.7286 31.3028V38H88V31.322C88 31.0341 88.0402 30.7846 88.1206 30.5544C88.201 30.3241 88.3015 30.1322 88.4221 29.9595C88.5427 29.7868 88.6834 29.6333 88.8643 29.5181C89.0251 29.403 89.206 29.307 89.3869 29.2303C89.5678 29.1535 89.7487 29.0959 89.9297 29.0576C90.1106 29.0192 90.2915 29 90.4523 29H93.5678C93.8694 29 94.1307 29.0384 94.3719 29.1151C94.6131 29.1919 94.8141 29.2878 94.995 29.403C95.1759 29.5181 95.3367 29.6525 95.4573 29.806C95.5779 29.9595 95.6784 30.1322 95.7588 30.3049C95.8392 30.4776 95.8995 30.6503 95.9397 30.823C95.9799 30.9957 96 31.1684 96 31.322V33.5288H95.9598Z" fill="url(#paint5_linear)"/>
<path d="M102.962 30.6816H99.2975C99.0696 30.6816 98.9177 30.7402 98.8038 30.8575C98.6899 30.9749 98.6329 31.1313 98.6329 31.3659V36H97V31.3659C97 31.0726 97.038 30.8184 97.1139 30.5838C97.1899 30.3492 97.2848 30.1536 97.3987 29.9777C97.5127 29.8017 97.6456 29.6453 97.8165 29.5279C97.9684 29.4106 98.1392 29.3128 98.3101 29.2346C98.481 29.1564 98.6519 29.0978 98.8228 29.0587C98.9937 29.0196 99.1646 29 99.3165 29H103V30.6816H102.962Z" fill="url(#paint6_linear)"/>
<defs>
<linearGradient id="paint0_linear" x1="0" y1="6.50612" x2="12.98" y2="6.50612" gradientUnits="userSpaceOnUse">
<stop stop-color="#FF9E00"/>
<stop offset="1" stop-color="#FF5C00"/>
</linearGradient>
<linearGradient id="paint1_linear" x1="0" y1="36.5096" x2="13.012" y2="36.5096" gradientUnits="userSpaceOnUse">
<stop stop-color="#FF9E00"/>
<stop offset="1" stop-color="#FF5C00"/>
</linearGradient>
<linearGradient id="paint2_linear" x1="30.0075" y1="36.4936" x2="43.0195" y2="36.4936" gradientUnits="userSpaceOnUse">
<stop stop-color="#FF9E00"/>
<stop offset="1" stop-color="#FF5C00"/>
</linearGradient>
<linearGradient id="paint3_linear" x1="29.9915" y1="6.49005" x2="43.0034" y2="6.49005" gradientUnits="userSpaceOnUse">
<stop stop-color="#FF9E00"/>
<stop offset="1" stop-color="#FF5C00"/>
</linearGradient>
<linearGradient id="paint4_linear" x1="87.3488" y1="33.5872" x2="112.009" y2="33.5872" gradientUnits="userSpaceOnUse">
<stop stop-color="#FF9E00"/>
<stop offset="1" stop-color="#FF5C00"/>
</linearGradient>
<linearGradient id="paint5_linear" x1="88.0154" y1="33.496" x2="112.552" y2="33.496" gradientUnits="userSpaceOnUse">
<stop stop-color="#FF9E00"/>
<stop offset="1" stop-color="#FF5C00"/>
</linearGradient>
<linearGradient id="paint6_linear" x1="88.2424" y1="33.5811" x2="111.42" y2="33.5811" gradientUnits="userSpaceOnUse">
<stop stop-color="#FF9E00"/>
<stop offset="1" stop-color="#FF5C00"/>
</linearGradient>
</defs>
</svg>
