<svg width="12" height="19" viewBox="0 0 12 19" fill="none" xmlns="http://www.w3.org/2000/svg">
<path d="M9.75406 0H1.28331C0.5776 0 0 0.577057 0 1.28331V17.7161C0 18.4224 0.5776 19 1.28331 19H9.75406C10.4598 19 11.0374 18.4235 11.0374 17.7167V1.28331C11.0374 0.577057 10.4598 0 9.75406 0ZM4.16371 0.925029H6.87366C6.95943 0.925029 7.02891 0.994514 7.02891 1.08083C7.02891 1.1666 6.95943 1.23609 6.87366 1.23609H4.16371C4.07794 1.23609 4.00846 1.1666 4.00846 1.08083C4.00846 0.994514 4.07794 0.925029 4.16371 0.925029ZM5.51869 18.3583C5.1642 18.3583 4.87703 18.0712 4.87703 17.7161C4.87703 17.3611 5.1642 17.0745 5.51869 17.0745C5.87317 17.0745 6.16034 17.3611 6.16034 17.7161C6.16034 18.0712 5.87317 18.3583 5.51869 18.3583ZM10.1444 16.625H0.893V2.03517H10.1444V16.625Z" fill="#828282"/>
</svg>
