<svg width="24" height="24" viewBox="0 0 24 24" fill="none" xmlns="http://www.w3.org/2000/svg">
<path d="M16.6048 1H7.39524C6.62798 1 6 1.66817 6 2.48594V21.5134C6 22.3312 6.62798 23 7.39524 23H16.6048C17.372 23 18 22.3325 18 21.5141V2.48594C18 1.66817 17.372 1 16.6048 1ZM10.5269 2.07109H13.4731C13.5664 2.07109 13.6419 2.15154 13.6419 2.25149C13.6419 2.3508 13.5664 2.43126 13.4731 2.43126H10.5269C10.4336 2.43126 10.3581 2.3508 10.3581 2.25149C10.3581 2.15154 10.4336 2.07109 10.5269 2.07109ZM12 22.257C11.6146 22.257 11.3024 21.9245 11.3024 21.5134C11.3024 21.1023 11.6146 20.7705 12 20.7705C12.3854 20.7705 12.6976 21.1023 12.6976 21.5134C12.6976 21.9245 12.3854 22.257 12 22.257ZM17.0291 20.25H6.97088V3.35651H17.0291V20.25Z" fill="#828282"/>
</svg>
