<svg width="50" height="50" viewBox="0 0 50 50" fill="none" xmlns="http://www.w3.org/2000/svg">
<circle cx="25" cy="25" r="25" fill="#EB5757"/>
<path d="M14.5106 29.15C16.0556 29.15 17.2706 28.295 17.2706 26.825C17.2706 25.4 15.9806 24.935 14.7806 24.575C13.7456 24.26 12.7856 23.975 12.7856 23.24C12.7856 22.565 13.3706 22.085 14.2856 22.085C15.0356 22.085 15.8606 22.37 16.5806 22.835L17.1056 21.965C16.3106 21.44 15.2606 21.11 14.3156 21.11C12.7856 21.11 11.6756 21.995 11.6756 23.33C11.6756 24.785 13.0256 25.205 14.2406 25.55C15.2606 25.835 16.1756 26.135 16.1756 26.915C16.1756 27.695 15.5006 28.175 14.5706 28.175C13.6556 28.175 12.7256 27.815 11.8856 27.185L11.3006 28.01C12.1706 28.715 13.4006 29.15 14.5106 29.15ZM21.7263 29.165C23.0913 29.165 23.9763 28.535 24.5163 27.845V29H25.6563V24.26C25.6563 23.27 25.3863 22.52 24.8463 21.98C24.2913 21.425 23.4363 21.125 22.3413 21.125C21.2013 21.125 20.3763 21.395 19.5213 21.785L19.8663 22.73C20.5863 22.4 21.3063 22.175 22.2213 22.175C23.6763 22.175 24.5163 22.895 24.5163 24.275V24.515C23.8263 24.32 23.1363 24.185 22.1463 24.185C20.1813 24.185 18.8313 25.055 18.8313 26.72C18.8313 28.34 20.2713 29.165 21.7263 29.165ZM21.9513 28.235C20.9013 28.235 20.0013 27.665 20.0013 26.69C20.0013 25.73 20.8263 25.1 22.2663 25.1C23.2113 25.1 23.9613 25.265 24.5313 25.43V26.15C24.5313 27.38 23.3763 28.235 21.9513 28.235ZM28.2078 29H29.3628V18.05H28.2078V29ZM32.7332 25.595H38.8832C38.8982 25.415 38.8982 25.295 38.8982 25.19C38.8982 22.91 37.5782 21.08 35.2832 21.08C33.1382 21.08 31.5632 22.88 31.5632 25.13C31.5632 27.545 33.3032 29.18 35.4332 29.18C36.9032 29.18 37.8482 28.595 38.6282 27.725L37.9082 27.08C37.2782 27.74 36.5282 28.175 35.4632 28.175C34.0982 28.175 32.8982 27.23 32.7332 25.595ZM32.7332 24.665C32.8982 23.165 33.9182 22.055 35.2532 22.055C36.7832 22.055 37.5932 23.255 37.7282 24.665H32.7332Z" fill="white"/>
</svg>
