<svg width="50" height="50" viewBox="0 0 50 50" fill="none" xmlns="http://www.w3.org/2000/svg">
<circle cx="25" cy="25" r="25" fill="#EB5757"/>
<path d="M7.9159 25.1H12.0859V23.885H7.9159V25.1ZM17.5825 29.18C19.5325 29.18 21.0925 27.89 21.0925 26.015C21.0925 24.065 19.4575 23.18 17.6275 23.03L20.9275 19.37V18.5H14.2225V19.565H19.3525L16.0375 23.3L16.2775 24.005H16.9525C18.6775 24.005 19.8925 24.725 19.8925 26.03C19.8925 27.29 18.8725 28.1 17.5975 28.1C16.3075 28.1 15.3325 27.53 14.5225 26.54L13.6675 27.305C14.5225 28.415 15.8275 29.18 17.5825 29.18ZM27.4717 29.18C30.1717 29.18 31.9117 26.69 31.9117 23.75C31.9117 20.78 30.2017 18.32 27.5017 18.32C24.8017 18.32 23.0467 20.81 23.0467 23.75C23.0467 26.72 24.7567 29.18 27.4717 29.18ZM27.5017 28.1C25.5367 28.1 24.2767 26.045 24.2767 23.75C24.2767 21.41 25.5067 19.4 27.4717 19.4C29.4217 19.4 30.6817 21.455 30.6817 23.75C30.6817 26.075 29.4667 28.1 27.5017 28.1ZM35.9893 23.75C37.4143 23.75 38.3743 22.49 38.3743 21.065C38.3743 19.625 37.4293 18.38 36.0193 18.38C34.5793 18.38 33.6193 19.64 33.6193 21.065C33.6193 22.505 34.5643 23.75 35.9893 23.75ZM34.6993 29H35.7793L43.4743 18.5H42.4093L34.6993 29ZM42.1693 29.12C43.6093 29.12 44.5543 27.86 44.5543 26.435C44.5543 24.995 43.6243 23.75 42.1993 23.75C40.7743 23.75 39.8143 25.01 39.8143 26.435C39.8143 27.875 40.7593 29.12 42.1693 29.12ZM36.0193 22.91C35.2393 22.91 34.6243 22.115 34.6243 21.065C34.6243 20.045 35.1643 19.22 35.9893 19.22C36.7543 19.22 37.3843 20.015 37.3843 21.065C37.3843 22.1 36.8293 22.91 36.0193 22.91ZM42.1993 28.28C41.4193 28.28 40.8043 27.485 40.8043 26.435C40.8043 25.415 41.3593 24.59 42.1693 24.59C42.9493 24.59 43.5643 25.385 43.5643 26.435C43.5643 27.47 43.0243 28.28 42.1993 28.28Z" fill="white"/>
</svg>
