<svg width="17" height="15" viewBox="0 0 17 15" fill="none" xmlns="http://www.w3.org/2000/svg">
<path d="M16.9134 0.0601237C16.8378 -0.00315478 16.7301 -0.0178358 16.6388 0.0225249L0.147043 7.32775C0.0582573 7.36709 0.00108244 7.45155 1.51775e-05 7.54486C-0.00105209 7.63818 0.0542423 7.7238 0.142164 7.76493L4.80931 9.94857C4.89489 9.98864 4.99694 9.97958 5.07338 9.92512L9.61113 6.69172L6.04881 10.1851C5.99798 10.235 5.97207 10.3032 5.97766 10.3725L6.33234 14.7763C6.34022 14.8739 6.40883 14.9573 6.50636 14.9879C6.53243 14.996 6.55921 15 6.58569 15C6.65832 15 6.72896 14.9703 6.7781 14.916L9.25527 12.1794L12.3176 13.5743C12.384 13.6046 12.461 13.6058 12.5285 13.5778C12.5961 13.5498 12.6475 13.4952 12.6695 13.4283L16.9883 0.314837C17.0185 0.223262 16.9891 0.123402 16.9134 0.0601237Z" fill="#BDBDBD"/>
</svg>
