<svg width="19" height="21" viewBox="0 0 19 21" fill="none" xmlns="http://www.w3.org/2000/svg">
<path fill-rule="evenodd" clip-rule="evenodd" d="M16.5769 13.8269H5.38141C4.95129 13.8269 4.54623 13.7061 4.20381 13.4989V15.0785C4.20381 15.7475 4.72997 16.2956 5.38141 16.2956H16.0299C17.2827 16.2956 18.3058 17.353 18.3058 18.6478C18.3058 19.9426 17.2827 21 16.0299 21C14.7771 21 13.7541 19.9469 13.7541 18.6478C13.7541 18.2162 13.8668 17.8105 14.0672 17.4609H8.99772C9.19816 17.8062 9.31091 18.2162 9.31091 18.6478C9.31091 19.9426 8.28782 21 7.03506 21C5.78229 21 4.7592 19.9469 4.7592 18.6478C4.7592 18.2076 4.8803 17.7933 5.08492 17.4394C3.95326 17.2883 3.07632 16.287 3.07632 15.0785V11.4531V8.58305V5.37199V4.95335V2.31199L0.345293 1.1208C0.0571574 0.995633 -0.0764708 0.654674 0.0446297 0.356874C0.16573 0.0590744 0.495625 -0.0790356 0.783761 0.0461266L3.86139 1.38407C3.86974 1.38838 3.87913 1.3927 3.88853 1.39701C3.89793 1.40133 3.90732 1.40565 3.91567 1.40996C3.91776 1.41212 3.91985 1.4132 3.92194 1.41428C3.92402 1.41536 3.92611 1.41644 3.9282 1.41859C3.93655 1.42291 3.94908 1.43154 3.96161 1.44017C3.96578 1.44449 3.96996 1.44773 3.97414 1.45096C3.97831 1.4542 3.98249 1.45744 3.98666 1.46175C3.98875 1.46391 3.99188 1.46607 3.99501 1.46823L3.99501 1.46823C3.99815 1.47039 4.00128 1.47254 4.00337 1.4747C4.01589 1.48333 4.02425 1.49197 4.0326 1.5006L4.04513 1.51355L4.07018 1.53944L4.08271 1.55239C4.0848 1.5567 4.08793 1.56102 4.09106 1.56534C4.09419 1.56965 4.09732 1.57397 4.09941 1.57828C4.1015 1.5826 4.10359 1.58584 4.10568 1.58907C4.10776 1.59231 4.10985 1.59555 4.11194 1.59986C4.11403 1.60418 4.11612 1.60742 4.1182 1.61065C4.12029 1.61389 4.12238 1.61713 4.12447 1.62144C4.13282 1.63008 4.13699 1.63871 4.14117 1.64734C4.14326 1.6495 4.1443 1.65273 4.14535 1.65597C4.14639 1.65921 4.14743 1.66244 4.14952 1.6646C4.15787 1.67755 4.16205 1.68618 4.16623 1.69913C4.16623 1.70129 4.16727 1.70453 4.16831 1.70776C4.16936 1.711 4.1704 1.71424 4.1704 1.71639L4.18293 1.75524C4.18293 1.75955 4.18397 1.76279 4.18502 1.76603C4.18606 1.76926 4.18711 1.7725 4.18711 1.77682C4.18919 1.78329 4.19024 1.78869 4.19128 1.79408C4.19232 1.79948 4.19337 1.80487 4.19546 1.81134C4.19546 1.81782 4.1965 1.82429 4.19755 1.83077C4.19859 1.83724 4.19963 1.84371 4.19963 1.85019C4.20381 1.85882 4.20381 1.86314 4.20381 1.86745C4.20798 1.88472 4.20798 1.9063 4.20798 1.92788V3.97363L18.3976 5.9978C18.4025 5.9978 18.406 5.99928 18.4088 6.00051C18.4109 6.00138 18.4126 6.00212 18.4143 6.00212C18.4269 6.00212 18.4352 6.00212 18.4477 6.00644C18.4495 6.00644 18.4519 6.00718 18.4548 6.00804C18.4588 6.00927 18.4637 6.01075 18.4686 6.01075C18.477 6.01075 18.4895 6.01507 18.4979 6.01938C18.502 6.02154 18.5062 6.02262 18.5104 6.0237L18.5158 6.02517C18.5181 6.0259 18.5205 6.02678 18.5229 6.02801L18.548 6.04096L18.573 6.05391L18.5981 6.06686C18.6064 6.07549 18.6148 6.07981 18.6231 6.08412C18.6273 6.08628 18.6304 6.08844 18.6336 6.0906C18.6367 6.09275 18.6398 6.09491 18.644 6.09707C18.6482 6.09923 18.6524 6.10246 18.6565 6.1057C18.6607 6.10894 18.6649 6.11218 18.6691 6.11433C18.6732 6.11649 18.6764 6.11973 18.6795 6.12297C18.6826 6.1262 18.6858 6.12944 18.6899 6.1316L18.7108 6.15318C18.7121 6.15448 18.7137 6.15579 18.7155 6.15722C18.7197 6.1605 18.7246 6.16442 18.7275 6.17044C18.7296 6.17476 18.7327 6.17799 18.7359 6.18123C18.739 6.18447 18.7421 6.18771 18.7442 6.19202C18.7463 6.19634 18.7495 6.19957 18.7526 6.20281C18.7557 6.20605 18.7588 6.20928 18.7609 6.2136C18.7693 6.22223 18.7735 6.22655 18.7776 6.23518C18.7797 6.2395 18.7829 6.24381 18.786 6.24813C18.7891 6.25244 18.7923 6.25676 18.7943 6.26108C18.7964 6.26539 18.7985 6.26863 18.8006 6.27187L18.8006 6.27189C18.8027 6.27512 18.8048 6.27835 18.8069 6.28266L18.8194 6.30855C18.8236 6.31287 18.8277 6.3215 18.8319 6.33013C18.8361 6.34308 18.8403 6.35171 18.8444 6.36034C18.8465 6.36466 18.8476 6.36897 18.8486 6.37329C18.8497 6.37761 18.8507 6.38192 18.8528 6.38624C18.8549 6.39055 18.8559 6.39487 18.857 6.39919C18.858 6.4035 18.8591 6.40782 18.8612 6.41213C18.863 6.41781 18.864 6.42266 18.8649 6.42704C18.8661 6.43265 18.8672 6.4375 18.8695 6.44235C18.8695 6.44666 18.8706 6.45098 18.8716 6.45529C18.8726 6.45961 18.8737 6.46392 18.8737 6.46824C18.8737 6.47256 18.8747 6.47795 18.8758 6.48335C18.8768 6.48874 18.8779 6.49414 18.8779 6.49845C18.882 6.50708 18.882 6.51572 18.882 6.52435V6.55888V6.57614V11.4445C18.882 12.7566 17.8464 13.8269 16.5769 13.8269ZM7.03907 19.8304C7.66963 19.8304 8.18744 19.2995 8.18744 18.6435C8.18744 17.9875 7.66963 17.4566 7.03907 17.4566C6.40852 17.4566 5.89071 17.9918 5.89071 18.6435C5.89071 19.2952 6.40852 19.8304 7.03907 19.8304ZM17.1822 18.6435C17.1822 19.2995 16.6644 19.8304 16.0338 19.8304C15.4033 19.8304 14.8855 19.2952 14.8855 18.6435C14.8855 17.9918 15.4033 17.4566 16.0338 17.4566C16.6644 17.4566 17.1822 17.9875 17.1822 18.6435ZM5.38109 12.6616H16.5766C17.2239 12.6616 17.7542 12.1178 17.7542 11.4402V7.07677L4.20349 5.14754V5.36334V8.5744V11.4445C4.20349 12.1135 4.72965 12.6616 5.38109 12.6616Z" fill="#828282"/>
</svg>
