<svg width="20" height="17" viewBox="0 0 20 17" fill="none" xmlns="http://www.w3.org/2000/svg">
<path d="M20 2.02276C19.2639 2.36348 18.474 2.59455 17.6441 2.69771C18.4915 2.16767 19.1401 1.32696 19.4475 0.328259C18.6527 0.819108 17.7754 1.17553 16.8405 1.36874C16.0919 0.534546 15.0271 0.0149536 13.8461 0.0149536C11.5803 0.0149536 9.7431 1.93401 9.7431 4.29953C9.7431 4.63503 9.77935 4.9627 9.84935 5.27604C6.44 5.09717 3.41683 3.39092 1.39346 0.798217C1.03977 1.43008 0.838562 2.16634 0.838562 2.95227C0.838562 4.43922 1.56343 5.75122 2.66324 6.51882C1.99085 6.49533 1.35846 6.30212 0.804837 5.98096V6.03449C0.804837 8.1102 2.21958 9.84256 4.09546 10.2368C3.75176 10.3334 3.38935 10.387 3.01441 10.387C2.74948 10.387 2.49327 10.3596 2.24206 10.3073C2.76444 12.011 4.27918 13.2499 6.07386 13.2838C4.67036 14.4327 2.90069 15.1154 0.978562 15.1154C0.647386 15.1154 0.321176 15.0945 0 15.0567C1.81591 16.2747 3.97176 16.9849 6.28882 16.9849C13.8361 16.9849 17.9616 10.4549 17.9616 4.79171L17.9479 4.23689C18.754 3.63633 19.4513 2.88177 20 2.02276Z" fill="#BABABA"/>
</svg>
